<?xml version="1.0" encoding="utf-8"?>
<!-- Generator: Adobe Illustrator 26.0.1, SVG Export Plug-In . SVG Version: 6.00 Build 0)  -->
<svg version="1.1" id="Layer_1" xmlns="http://www.w3.org/2000/svg" xmlns:xlink="http://www.w3.org/1999/xlink" x="0px" y="0px"
	 viewBox="0 0 841.89 595.28" style="enable-background:new 0 0 841.89 595.28;" xml:space="preserve">
<style type="text/css">
	.st0{fill:none;stroke:#000000;stroke-width:5;stroke-linecap:round;stroke-linejoin:round;stroke-miterlimit:10;}
</style>
<circle cx="700.95" cy="210.07" r="3.61"/>
<path class="st0" d="M563.49,224.95c55.47-13.8,121.22-14.88,121.22-14.88"/>
<circle cx="439.93" cy="258.73" r="3.61"/>
<path class="st0" d="M354.06,304.77c34.36-31.93,70.89-40.59,70.89-40.59"/>
<circle cx="273.61" cy="370.98" r="3.61"/>
<path class="st0" d="M147.88,342.12c71.8,5.77,111.48,20.56,111.48,20.56"/>
<circle cx="753.04" cy="278.8" r="3.61"/>
<path class="st0" d="M461.75,430.06l118.52-304.41c0,0-64.23,131.47-163.16,219.99c-87.4,78.2-119.87,14.61-51.1-33.92
	c57.18-40.35,145-59.71,145-59.71s77.7-21.07,195.33-25.3c131.54-4.73,103.4,43.98,60.64,51.15"/>
<path class="st0" d="M273.07,271.76c112.38-52.49,140.88-129.31,136.74-130.69c-6.19-2.07-111.12,231.71-111.12,231.71
	c-36.08-50.69-259.58-46.9-259.58-46.9l367.45-10.82"/>
<circle cx="260.26" cy="276.27" r="3.61"/>
</svg>
